<mxfile host="app.diagrams.net" modified="2024-05-17T11:43:43.771Z" agent="Mozilla/5.0 (Windows NT 10.0; Win64; x64) AppleWebKit/537.36 (KHTML, like Gecko) Chrome/124.0.0.0 Safari/537.36 Edg/124.0.0.0" etag="cTcw2skpgdQ5UoiOdke_" version="24.4.4" type="github" pages="2">
  <diagram name="第 1 页" id="8FlMMrjvGm8YahryDWu7" />
  <diagram id="XSuODEvMpG7KVAw9AEoW" name="论文框架">
    <mxGraphModel dx="1554" dy="865" grid="0" gridSize="10" guides="1" tooltips="1" connect="1" arrows="1" fold="1" page="1" pageScale="1" pageWidth="4681" pageHeight="3300" math="0" shadow="0">
      <root>
        <mxCell id="0" />
        <mxCell id="1" parent="0" />
        <mxCell id="3r45xA5qqwSHw7yx6UH--1" value="Conv" style="rounded=1;whiteSpace=wrap;html=1;strokeColor=#6c8ebf;fillColor=#dae8fc;" vertex="1" parent="1">
          <mxGeometry x="299" y="131" width="90" height="30" as="geometry" />
        </mxCell>
      </root>
    </mxGraphModel>
  </diagram>
</mxfile>
